<svg width="108" height="72" viewBox="0 0 108 72" fill="none" xmlns="http://www.w3.org/2000/svg">
<rect width="72" height="72" rx="36" fill="#B5B4CC"/>
<rect x="36" width="72" height="72" rx="36" fill="#2011CC"/>
<path d="M64.008 47V24.6H73.224C75.208 24.6 76.904 24.92 78.312 25.56C79.7413 26.2 80.84 27.1173 81.608 28.312C82.376 29.5067 82.76 30.9253 82.76 32.568C82.76 34.2107 82.376 35.6293 81.608 36.824C80.84 38.0187 79.7413 38.936 78.312 39.576C76.904 40.216 75.208 40.536 73.224 40.536H66.312L68.168 38.584V47H64.008ZM68.168 39.032L66.312 37.016H73.032C74.8667 37.016 76.2427 36.632 77.16 35.864C78.0987 35.0747 78.568 33.976 78.568 32.568C78.568 31.1387 78.0987 30.04 77.16 29.272C76.2427 28.504 74.8667 28.12 73.032 28.12H66.312L68.168 26.072V39.032Z" fill="#E7E6F0"/>
</svg>
