<svg width="53" height="52" viewBox="0 0 53 52" fill="none" xmlns="http://www.w3.org/2000/svg">
<path d="M43.8333 30.8753C45.1263 30.8753 46.3662 30.3617 47.2805 29.4475C48.1947 28.5332 48.7083 27.2933 48.7083 26.0003C48.7083 24.7074 48.1947 23.4674 47.2805 22.5532C46.3662 21.6389 45.1263 21.1253 43.8333 21.1253C42.5404 21.1253 41.3004 21.6389 40.3862 22.5532C39.472 23.4674 38.9583 24.7074 38.9583 26.0003C38.9583 27.2933 39.472 28.5332 40.3862 29.4475C41.3004 30.3617 42.5404 30.8753 43.8333 30.8753ZM43.8333 13.542C45.1263 13.542 46.3662 13.0284 47.2805 12.1141C48.1947 11.1999 48.7083 9.95992 48.7083 8.66699C48.7083 7.37406 48.1947 6.13409 47.2805 5.21985C46.3662 4.30561 45.1263 3.79199 43.8333 3.79199C42.5404 3.79199 41.3004 4.30561 40.3862 5.21985C39.472 6.13409 38.9583 7.37406 38.9583 8.66699C38.9583 9.95992 39.472 11.1999 40.3862 12.1141C41.3004 13.0284 42.5404 13.542 43.8333 13.542ZM43.8333 48.2087C44.4735 48.2087 45.1075 48.0826 45.6989 47.8376C46.2904 47.5926 46.8278 47.2335 47.2805 46.7808C47.7332 46.3281 48.0923 45.7907 48.3373 45.1992C48.5822 44.6078 48.7083 43.9739 48.7083 43.3337C48.7083 42.6935 48.5822 42.0595 48.3373 41.4681C48.0923 40.8766 47.7332 40.3392 47.2805 39.8865C46.8278 39.4338 46.2904 39.0747 45.6989 38.8297C45.1075 38.5848 44.4735 38.4587 43.8333 38.4587C42.5404 38.4587 41.3004 38.9723 40.3862 39.8865C39.472 40.8008 38.9583 42.0407 38.9583 43.3337C38.9583 44.6266 39.472 45.8666 40.3862 46.7808C41.3004 47.695 42.5404 48.2087 43.8333 48.2087ZM9.16667 30.8753C10.4596 30.8753 11.6996 30.3617 12.6138 29.4475C13.5281 28.5332 14.0417 27.2933 14.0417 26.0003C14.0417 24.7074 13.5281 23.4674 12.6138 22.5532C11.6996 21.6389 10.4596 21.1253 9.16667 21.1253C7.87374 21.1253 6.63377 21.6389 5.71953 22.5532C4.80529 23.4674 4.29167 24.7074 4.29167 26.0003C4.29167 27.2933 4.80529 28.5332 5.71953 29.4475C6.63377 30.3617 7.87374 30.8753 9.16667 30.8753Z" fill="#E7E6F0"/>
<path d="M41.6667 27.6253C42.555 27.6253 43.2917 26.8887 43.2917 26.0003C43.2917 25.112 42.555 24.3753 41.6667 24.3753H25.9583V15.167C25.9583 11.7437 27.41 10.292 30.8333 10.292H41.6667C42.555 10.292 43.2917 9.55533 43.2917 8.66699C43.2917 7.77866 42.555 7.04199 41.6667 7.04199H30.8333C25.59 7.04199 22.7083 9.92366 22.7083 15.167V24.3753H11.3333C10.445 24.3753 9.70833 25.112 9.70833 26.0003C9.70833 26.8887 10.445 27.6253 11.3333 27.6253H22.7083V36.8337C22.7083 42.077 25.59 44.9587 30.8333 44.9587H41.6667C42.555 44.9587 43.2917 44.222 43.2917 43.3337C43.2917 42.4453 42.555 41.7087 41.6667 41.7087H30.8333C27.41 41.7087 25.9583 40.257 25.9583 36.8337V27.6253H41.6667Z" fill="#E7E6F0"/>
</svg>
