<svg width="32" height="33" viewBox="0 0 32 33" fill="none" xmlns="http://www.w3.org/2000/svg">
<path d="M23.748 7.82008V8.80675L19.028 6.07341C17.2413 5.04675 14.748 5.04675 12.9747 6.07341L8.25467 8.82008V7.82008C8.25467 4.82008 9.89467 3.16675 12.8947 3.16675H19.108C22.108 3.16675 23.748 4.82008 23.748 7.82008Z" fill="#030214"/>
<path d="M23.7867 11.124L23.6 11.0307L21.7867 9.99072L18.0267 7.81738C16.88 7.15072 15.12 7.15072 13.9733 7.81738L10.2133 9.97738L8.39999 11.044L8.15999 11.164C5.82666 12.7374 5.66666 13.0307 5.66666 15.5507V21.5774C5.66666 24.0974 5.82666 24.3907 8.21332 26.0041L13.9733 29.3241C14.5467 29.6707 15.2667 29.8174 16 29.8174C16.72 29.8174 17.4533 29.6574 18.0267 29.3241L23.84 25.9641C26.1867 24.3907 26.3333 24.1107 26.3333 21.5774V15.5507C26.3333 13.0307 26.1733 12.7374 23.7867 11.124ZM19.72 18.4974L18.9067 19.4974C18.7733 19.6441 18.68 19.9241 18.6933 20.1241L18.7733 21.4041C18.8267 22.1907 18.2667 22.5907 17.5333 22.3107L16.3467 21.8307C16.1249 21.7641 15.8884 21.7641 15.6667 21.8307L14.48 22.2974C13.7467 22.5907 13.1867 22.1774 13.24 21.3907L13.32 20.1107C13.325 19.8832 13.2494 19.6613 13.1067 19.484L12.28 18.4974C11.7733 17.8974 12 17.2307 12.76 17.0307L14 16.7107C14.2 16.6574 14.4267 16.4707 14.5333 16.3107L15.2267 15.244C15.6533 14.5774 16.3333 14.5774 16.7733 15.244L17.4667 16.3107C17.5733 16.484 17.8133 16.6574 18 16.7107L19.24 17.0307C20 17.2307 20.2267 17.8974 19.72 18.4974Z" fill="#030214"/>
</svg>
