<svg width="52" height="52" viewBox="0 0 52 52" fill="none" xmlns="http://www.w3.org/2000/svg">
<path d="M45.5 49.2913H6.5C5.61167 49.2913 4.875 48.5547 4.875 47.6663C4.875 46.778 5.61167 46.0413 6.5 46.0413H45.5C46.3883 46.0413 47.125 46.778 47.125 47.6663C47.125 48.5547 46.3883 49.2913 45.5 49.2913ZM12.1333 18.1542H8.66667C7.475 18.1542 6.5 19.1292 6.5 20.3208V38.9975C6.5 40.1892 7.475 41.1642 8.66667 41.1642H12.1333C13.325 41.1642 14.3 40.1892 14.3 38.9975V20.3208C14.3 19.1075 13.325 18.1542 12.1333 18.1542ZM27.7333 11.2468H24.2667C23.075 11.2468 22.1 12.2218 22.1 13.4135V39.0018C22.1 40.1935 23.075 41.1685 24.2667 41.1685H27.7333C28.925 41.1685 29.9 40.1935 29.9 39.0018V13.4135C29.9 12.2218 28.925 11.2468 27.7333 11.2468ZM43.3333 4.33301H39.8667C38.675 4.33301 37.7 5.30801 37.7 6.49967V38.9997C37.7 40.1913 38.675 41.1663 39.8667 41.1663H43.3333C44.525 41.1663 45.5 40.1913 45.5 38.9997V6.49967C45.5 5.30801 44.525 4.33301 43.3333 4.33301Z" fill="#E7E6F0"/>
</svg>
