<svg width="52" height="52" viewBox="0 0 52 52" fill="true" xmlns="http://www.w3.org/2000/svg">
<path d="M41.405 16.1868L33.7783 8.56018C26.9317 1.73518 23.335 4.24851 19.0017 8.56018L6.73833 20.8235C4.24666 23.3152 2.88166 24.9185 2.38333 26.6952C2.38333 26.7168 2.36166 26.7168 2.36166 26.7168V26.8252C1.47333 29.9885 3.81333 32.6752 6.73833 35.6002L14.3867 43.2052C17.1167 45.9568 19.3267 47.6685 21.775 47.6685C24.2233 47.6685 26.325 46.0218 29.1417 43.2052L41.405 30.9635C42.4667 29.8802 43.2467 28.9918 43.8533 28.1468V28.1252H43.875C46.6483 24.2468 45.9117 20.6718 41.405 16.1868ZM39.1733 24.6368H39.1517C38.5017 24.4852 37.83 24.3552 37.1583 24.2252C37.115 24.2252 37.0717 24.2035 37.0067 24.2035C35.49 23.9218 33.9517 23.6835 32.3917 23.4885H32.305C30.745 23.2935 29.1633 23.1418 27.5817 23.0552H27.4083C26.0217 22.9685 24.6133 22.9252 23.2267 22.9252C21.5367 22.9252 19.8467 23.0118 18.1783 23.1202L17.3767 23.1852C16.12 23.2718 14.8633 23.4018 13.6283 23.5535L12.6317 23.6835C11.375 23.8785 10.14 24.0735 8.905 24.3118C8.62333 24.3768 8.36333 24.4202 8.08166 24.4635L7.735 24.5285C8.125 24.0952 8.58 23.6402 9.07833 23.1418L21.32 10.9002C25.2633 7.00018 26.6067 6.06851 31.46 10.9002L39.065 18.5268C40.235 19.6752 41.015 20.6502 41.4917 21.4952C41.4917 21.4952 41.4917 21.5168 41.5133 21.5168C42.4233 23.0985 40.95 24.9835 39.1733 24.6368ZM45.3917 36.5513C44.5683 35.533 43.8533 34.6663 42.25 34.6663C40.6467 34.6663 39.9317 35.533 39.13 36.5513C37.3967 38.6963 36.6167 41.0363 36.8983 43.2897C37.2233 45.868 39.4333 47.6663 42.25 47.6663C45.0667 47.6663 47.2767 45.868 47.6017 43.268C47.8833 41.0147 47.125 38.6963 45.3917 36.5513Z" fill="#E7E6F0"/>
</svg>
