<svg width="32" height="33" viewBox="0 0 32 33" fill="none" xmlns="http://www.w3.org/2000/svg">
<path d="M12 3.16675C8.50668 3.16675 5.66668 6.00675 5.66668 9.50008C5.66668 12.9267 8.34668 15.7001 11.84 15.8201C11.9467 15.8067 12.0533 15.8067 12.1333 15.8201H12.2267C13.8658 15.7654 15.4194 15.0754 16.5591 13.896C17.6987 12.7165 18.3349 11.1401 18.3333 9.50008C18.3333 6.00675 15.4933 3.16675 12 3.16675ZM18.7733 19.3654C15.0533 16.8854 8.98668 16.8854 5.24001 19.3654C3.54668 20.4987 2.61334 22.0321 2.61334 23.6721C2.61334 25.3121 3.54668 26.8321 5.22668 27.9521C7.09334 29.2054 9.54668 29.8321 12 29.8321C14.4533 29.8321 16.9067 29.2054 18.7733 27.9521C20.4533 26.8188 21.3867 25.2987 21.3867 23.6454C21.3733 22.0054 20.4533 20.4854 18.7733 19.3654ZM26.6533 10.2841C26.8667 12.8707 25.0267 15.1374 22.48 15.4441H22.4133C22.3333 15.4441 22.2533 15.4441 22.1867 15.4707C20.8933 15.5374 19.7067 15.1241 18.8133 14.3641C20.1867 13.1374 20.9733 11.2974 20.8133 9.29741C20.7219 8.25742 20.3687 7.25749 19.7867 6.39075C20.4853 6.05086 21.2562 5.88604 22.0327 5.91051C22.8093 5.93498 23.5682 6.14801 24.2441 6.53122C24.92 6.91443 25.4925 7.45631 25.9122 8.11012C26.3319 8.76393 26.5863 9.51004 26.6533 10.2841Z" fill="#030214"/>
<path d="M29.3173 22.6201C29.2107 23.9135 28.384 25.0335 26.9973 25.7935C25.664 26.5268 23.984 26.8735 22.3173 26.8335C23.2773 25.9668 23.8373 24.8868 23.944 23.7401C24.0773 22.0868 23.2907 20.5001 21.7173 19.2335C20.824 18.5268 19.784 17.9668 18.6507 17.5535C21.5973 16.7001 25.304 17.2735 27.584 19.1135C28.8107 20.1001 29.4373 21.3401 29.3173 22.6201Z" fill="#030214"/>
</svg>
