<svg width="32" height="33" viewBox="0 0 32 33" fill="none" xmlns="http://www.w3.org/2000/svg">
<path d="M21.3333 3.16675H10.6667C6 3.16675 4 5.83341 4 9.83342V15.7934C4 16.2601 4.45333 16.5801 4.88 16.4201C6.42414 15.8175 8.10953 15.6739 9.73333 16.0067C13.2 16.7001 15.96 19.5534 16.5333 23.0334C16.88 25.1534 16.4533 27.1667 15.48 28.8334C15.2133 29.2734 15.5333 29.8334 16.0533 29.8334H21.3333C26 29.8334 28 27.1667 28 23.1667V9.83342C28 5.83341 26 3.16675 21.3333 3.16675ZM24.6667 12.8334H22C19.9733 12.8334 18.3333 11.1934 18.3333 9.16675V6.50008C18.3333 5.95341 18.7867 5.50008 19.3333 5.50008C19.88 5.50008 20.3333 5.95341 20.3333 6.50008V9.16675C20.3333 10.0867 21.08 10.8334 22 10.8334H24.6667C25.2133 10.8334 25.6667 11.2867 25.6667 11.8334C25.6667 12.3801 25.2133 12.8334 24.6667 12.8334Z" fill="#030214"/>
<path d="M8.00001 17.8333C4.32001 17.8333 1.33334 20.8199 1.33334 24.4999C1.33334 28.1799 4.32001 31.1666 8.00001 31.1666C11.68 31.1666 14.6667 28.1799 14.6667 24.4999C14.6667 20.8199 11.68 17.8333 8.00001 17.8333ZM6.88001 26.1933C7.21334 26.5266 7.21334 27.0733 6.88001 27.4199C6.70668 27.5933 6.49334 27.6733 6.26668 27.6733C6.04001 27.6733 5.82668 27.5933 5.65334 27.4199L3.34668 25.1133C3.18641 24.9493 3.09667 24.7292 3.09667 24.4999C3.09667 24.2707 3.18641 24.0505 3.34668 23.8866L5.65334 21.5799C5.98668 21.2466 6.53334 21.2466 6.88001 21.5799C7.21334 21.9133 7.21334 22.4599 6.88001 22.8066L5.18668 24.4999L6.88001 26.1933ZM12.64 25.1133L10.3333 27.4199C10.16 27.5933 9.94668 27.6733 9.72001 27.6733C9.49334 27.6733 9.28001 27.5933 9.10668 27.4199C8.94641 27.256 8.85667 27.0358 8.85667 26.8066C8.85667 26.5773 8.94641 26.3572 9.10668 26.1933L10.8133 24.4999L9.12001 22.8066C8.95974 22.6427 8.87 22.4225 8.87 22.1933C8.87 21.964 8.95974 21.7438 9.12001 21.5799C9.45334 21.2466 10 21.2466 10.3467 21.5799L12.6533 23.8866C12.9733 24.2333 12.9733 24.7666 12.64 25.1133Z" fill="#030214"/>
</svg>
