<svg width="32" height="33" viewBox="0 0 32 33" fill="none" xmlns="http://www.w3.org/2000/svg">
<path d="M14.3333 6.68673L8.42668 3.76673C5.24001 2.20673 2.62668 3.79339 2.62668 7.28673V27.0734C2.62668 28.5934 3.89335 29.8334 5.44001 29.8334H15.3333C16.0667 29.8334 16.6667 29.2334 16.6667 28.5001V10.3801C16.6667 8.98006 15.6133 7.31339 14.3333 6.68673ZM11.96 18.8334H7.33335C6.78668 18.8334 6.33335 18.3801 6.33335 17.8334C6.33335 17.2867 6.78668 16.8334 7.33335 16.8334H11.96C12.2252 16.8334 12.4796 16.9387 12.6671 17.1263C12.8547 17.3138 12.96 17.5682 12.96 17.8334C12.96 18.0986 12.8547 18.353 12.6671 18.5405C12.4796 18.728 12.2252 18.8334 11.96 18.8334ZM11.96 13.5001H7.33335C6.78668 13.5001 6.33335 13.0467 6.33335 12.5001C6.33335 11.9534 6.78668 11.5001 7.33335 11.5001H11.96C12.2252 11.5001 12.4796 11.6054 12.6671 11.793C12.8547 11.9805 12.96 12.2348 12.96 12.5001C12.96 12.7653 12.8547 13.0196 12.6671 13.2072C12.4796 13.3947 12.2252 13.5001 11.96 13.5001ZM29.3333 24.5534V26.5001C29.3333 27.3841 28.9822 28.232 28.357 28.8571C27.7319 29.4822 26.8841 29.8334 26 29.8334H19.96C19.24 29.8334 18.6667 29.2601 18.6667 28.5401V25.6601C20.0933 25.8334 21.6 25.4201 22.68 24.5534C23.5867 25.2867 24.7467 25.7267 26.0133 25.7267C27.2533 25.7267 28.4133 25.2867 29.3333 24.5534ZM29.3333 20.5667V20.5801C29.2857 21.4291 28.9154 22.2278 28.2983 22.8127C27.6811 23.3977 26.8637 23.7247 26.0133 23.7267C25.1293 23.7267 24.2814 23.3755 23.6563 22.7504C23.0312 22.1253 22.68 21.2774 22.68 20.3934C22.68 22.4334 20.8 24.0734 18.6667 23.6601V16.5001C18.6667 15.6467 19.4533 15.0067 20.2933 15.1934L22.68 15.7267L23.32 15.8734L26.04 16.4867C26.6933 16.6201 27.2933 16.8467 27.8133 17.1801C27.8133 17.1934 27.8267 17.1934 27.8267 17.1934C27.96 17.2867 28.0933 17.3934 28.2133 17.5134C28.8267 18.1267 29.2267 19.0201 29.32 20.3267C29.32 20.4067 29.3333 20.4867 29.3333 20.5667Z" fill="#030214"/>
</svg>
