<svg width="52" height="52" viewBox="0 0 52 52" fill="none" xmlns="http://www.w3.org/2000/svg">
<path d="M36.075 12.3916H15.925C9.53334 12.3916 4.33334 17.5916 4.33334 23.9833V36.0733C4.33334 42.4649 9.53334 47.6649 15.925 47.6649H36.075C42.4667 47.6649 47.6667 42.4649 47.6667 36.0733V23.9833C47.6667 17.5916 42.4667 12.3916 36.075 12.3916ZM31.4167 26.0416C31.4167 24.8499 32.3917 23.8749 33.5833 23.8749C34.775 23.8749 35.75 24.8499 35.75 26.0416C35.75 27.2333 34.775 28.2299 33.5833 28.2299C32.3917 28.2299 31.4167 27.2766 31.4167 26.0849V26.0416ZM21.9483 34.8166C21.6233 35.1416 21.2117 35.2933 20.8 35.2933C20.3883 35.2933 19.9767 35.1416 19.6517 34.8166L17.42 32.5849L15.275 34.7299C14.95 35.0549 14.5383 35.2066 14.1267 35.2066C13.715 35.2066 13.3033 35.0549 12.9783 34.7299C12.6761 34.4241 12.5067 34.0115 12.5067 33.5816C12.5067 33.1517 12.6761 32.7391 12.9783 32.4333L15.1233 30.2883L13.0433 28.2083C12.7411 27.9025 12.5717 27.4899 12.5717 27.0599C12.5717 26.63 12.7411 26.2174 13.0433 25.9116C13.6717 25.2833 14.7117 25.2833 15.34 25.9116L17.42 27.9916L19.565 25.8466C20.1933 25.2183 21.2333 25.2183 21.8617 25.8466C22.49 26.4749 22.49 27.5149 21.8617 28.1433L19.7167 30.2883L21.9483 32.5199C22.5767 33.1483 22.5767 34.1883 21.9483 34.8166ZM29.3367 32.4983C28.145 32.4983 27.1483 31.5233 27.1483 30.3316C27.1483 29.1399 28.1017 28.1649 29.2933 28.1649H29.3367C30.5283 28.1649 31.5033 29.1399 31.5033 30.3316C31.5033 31.5233 30.55 32.4983 29.3367 32.4983ZM33.5833 36.7666C32.3917 36.7666 31.4167 35.8133 31.4167 34.6216V34.5783C31.4167 33.3866 32.3917 32.4116 33.5833 32.4116C34.775 32.4116 35.75 33.3866 35.75 34.5783C35.75 35.7699 34.7967 36.7666 33.5833 36.7666ZM37.8733 32.4983C36.6817 32.4983 35.685 31.5233 35.685 30.3316C35.685 29.1399 36.6383 28.1649 37.83 28.1649H37.8733C39.065 28.1649 40.04 29.1399 40.04 30.3316C40.04 31.5233 39.0867 32.4983 37.8733 32.4983Z" fill="#E7E6F0"/>
<path d="M29.5533 5.87134L29.5317 7.90801C29.5147 8.83536 29.1358 9.71933 28.4759 10.3711C27.8161 11.0229 26.9275 11.3908 26 11.3963C25.675 11.3963 25.48 11.613 25.48 11.8947C25.48 12.1763 25.6967 12.393 25.9783 12.393H22.49C22.4683 12.2413 22.4467 12.068 22.4467 11.8947C22.4467 9.94467 24.0283 8.36301 25.9567 8.36301C26.2817 8.36301 26.4983 8.14634 26.4983 7.86468L26.52 5.82801C26.5417 5.00467 27.2133 4.33301 28.0367 4.33301H28.0583C28.9033 4.33301 29.5533 5.02634 29.5533 5.87134Z" fill="#E7E6F0"/>
</svg>
